<?xml version="1.0"?>
<svg xmlns="http://www.w3.org/2000/svg" xmlns:xlink="http://www.w3.org/1999/xlink" version="1.1" id="Capa_1" x="0px" y="0px" viewBox="0 0 453.872 453.872" style="enable-background:new 0 0 453.872 453.872;" xml:space="preserve" width="512px" height="512px"><g><g>
	<g id="XMLID_11_">
		<path id="XMLID_801_" d="M281.813,270.026l-11.226-7.245c-7.618,5.6-17.28,7.49-26.341,5.395    c-20.887-4.83-12.938-2.992-32.166-7.438c2.573,4.5,4.745,9.219,6.531,14.254l18.729,12.088l-14.002,10.127    c0.68,8.757,0.021,17.625-1.998,26.358l-6.257,27.059l67.57-48.872c5.144-3.72,8.119-9.739,7.95-16.085    C290.436,279.321,287.146,273.468,281.813,270.026z" data-original="#000000" class="active-path" data-old_color="#0d1d44" fill="#0d1d44"/>
		<path id="XMLID_810_" d="M386.787,160.076l-56.516,1.677l-110.142-60.801l-20.716-34.819l42.03-38.271    c6.541-5.956,7.015-16.087,1.059-22.629c-5.957-6.54-16.087-7.015-22.629-1.059L168.27,51.162    c-5.583,5.085-6.857,13.379-3.057,19.904l36.34,62.403l-17.422,30.498c12.367,6.547,21.969,17.391,26.955,30.474l47.126,10.897    l19.899-34.835l40.965,21.559c2.303,1.212,4.863,1.844,7.46,1.844c0.158,0,0.316-0.003,0.475-0.007l60.725-1.801    c8.843-0.263,15.799-7.644,15.537-16.486C403.016,166.941,395.856,159.856,386.787,160.076z" data-original="#000000" class="active-path" data-old_color="#0d1d44" fill="#0d1d44"/>
		<circle id="XMLID_811_" cx="279.67" cy="82.248" r="33.198" data-original="#000000" class="active-path" data-old_color="#0d1d44" fill="#0d1d44"/>
		<path id="XMLID_815_" d="M174.316,248.593c6.309-3.239,11.339-7.946,14.89-13.673l59.546,13.77    c6.561,1.516,13.1-2.574,14.616-9.125c1.534-6.634-2.682-13.126-9.126-14.615c-6.329-1.463-53.251-12.314-59.546-13.77    c-1.591-15.784-13.018-29.165-28.883-32.911c-16.001-3.8-32.337,3.329-40.731,16.813l-59.564-13.774    c-0.016-0.004-0.032-0.004-0.049-0.008c-5.867-1.334-11.97,1.851-14.115,7.657c-2.53,6.88,1.498,14.202,8.325,15.993    c0.117,0.031,0.229,0.072,0.347,0.099c7.155,1.655,49.846,11.526,59.564,13.774c0,0.001,0,0.002,0,0.004    c0.739,7.185,3.624,13.942,7.37,18.812c-2.264,0.755-45.218,5.939-55.692,51.224l-16.731,72.363    c-1.922,8.31,3.353,16.387,11.392,18.245l10.258,2.372l8.422-36.421c5.144-22.243,27.365-36.038,49.516-30.917    c22.228,5.14,36.057,27.286,30.917,49.516l-8.422,36.421l10.257,2.372c0.001,0,0.002,0,0.003,0.001    c8.153,1.883,16.351-3.205,18.242-11.392l16.733-72.364C208.195,291.653,196.679,263.852,174.316,248.593z M153.138,232.288    c-9.534-2.205-15.497-11.754-13.292-21.287c2.209-9.557,11.731-15.501,21.287-13.291c9.554,2.208,15.501,11.73,13.29,21.286v0.001    C172.215,228.549,162.694,234.498,153.138,232.288z" data-original="#000000" class="active-path" data-old_color="#0d1d44" fill="#0d1d44"/>
		<path id="XMLID_816_" d="M129.619,333.991c-11.446-2.647-22.876,4.486-25.524,15.937l-18.006,77.868    c-2.647,11.449,4.488,22.876,15.937,25.524c11.446,2.648,22.876-4.486,25.524-15.937l18.006-77.867    C148.203,348.066,141.068,336.638,129.619,333.991z" data-original="#000000" class="active-path" data-old_color="#0d1d44" fill="#0d1d44"/>
	</g>
</g></g> </svg>
