<?xml version="1.0"?>
<svg xmlns="http://www.w3.org/2000/svg" height="512px" viewBox="0 -56 480.00075 480" width="512px" class=""><g><path d="m176 208c4.417969 0 8-3.582031 8-8s-3.582031-8-8-8h-40c-4.417969 0-8 3.582031-8 8s3.582031 8 8 8zm0 0" data-original="#000000" class="active-path" data-old_color="#a0a0a0" fill="#a0a0a0"/><path d="m416 120c0 4.417969 3.582031 8 8 8h32c13.253906 0 24-10.746094 24-24v-48c0-13.253906-10.746094-24-24-24h-32c-4.417969 0-8 3.582031-8 8h-120c-13.253906 0-24 10.746094-24 24s10.746094 24 24 24h32v8c0 13.253906 10.746094 24 24 24v24h-8c-17.671875 0-32 14.328125-32 32v72h-48v-16c-.03125-21.769531-9.914062-42.355469-26.878906-56h18.878906c4.417969 0 8-3.582031 8-8v-16c0-13.253906-10.746094-24-24-24h-88v-120c0-4.417969-3.582031-8-8-8h-136c-4.417969 0-8 3.582031-8 8v96c0 4.417969 3.582031 8 8 8s8-3.582031 8-8v-88h32v40c0 4.417969 3.582031 8 8 8h48c4.417969 0 8-3.582031 8-8v-40h24v112h-128c-4.417969 0-8 3.582031-8 8v8c0 17.671875 14.328125 32 32 32h34.878906c-16.964844 13.644531-26.847656 34.230469-26.878906 56 0 4.417969 3.582031 8 8 8s8-3.582031 8-8c0-30.925781 25.070312-56 56-56h80c30.929688 0 56 25.074219 56 56v56h-11.519531c-3.425781-12.359375-9.542969-23.808594-17.921875-33.519531-2.894532-3.332031-7.941406-3.691407-11.277344-.800781-3.335938 2.894531-3.691406 7.945312-.800781 11.28125 5.867187 6.765624 10.398437 14.585937 13.359375 23.039062h-136c10.203125-28.863281 37.546875-48.117188 68.160156-48 8.464844-.027344 16.863281 1.464844 24.800781 4.398438 4.152344 1.527343 8.753907-.605469 10.277344-4.757813 1.527344-4.152344-.605469-8.757813-4.757813-10.28125-22.996093-8.429687-48.460937-6.894531-70.277343 4.234375-21.816407 11.125-38.007813 30.84375-44.683594 54.40625h-11.359375v-16c0-4.417969-3.582031-8-8-8s-8 3.582031-8 8v24c0 4.417969 3.582031 8 8 8h48.71875c-.4375 2.644531-.675781 5.320312-.71875 8 0 30.929688 25.070312 56 56 56s56-25.070312 56-56c-.042969-2.679688-.28125-5.355469-.71875-8h129.4375c-.4375 2.644531-.675781 5.320312-.71875 8 0 30.929688 25.070312 56 56 56s56-25.070312 56-56c-.042969-2.679688-.28125-5.355469-.71875-8h24.71875c4.417969 0 8-3.582031 8-8 .1875-45.640625-34.546875-83.851562-80-88v-88zm-320-72h-32v-32h32zm-64 112c-8.835938 0-16-7.164062-16-16h120v16zm120 0v-16h88c4.417969 0 8 3.582031 8 8v8zm192-64v-8c4.417969 0 8-3.582031 8-8s-3.582031-8-8-8h-48c-4.417969 0-8-3.582031-8-8s3.582031-8 8-8h56c4.417969 0 8 3.582031 8 8s3.582031 8 8 8 8-3.582031 8-8c-.023438-2.730469-.507812-5.433594-1.441406-8h41.441406v16c0 4.417969 3.582031 8 8 8s8-3.582031 8-8v-24h24c4.417969 0 8 3.582031 8 8v48c0 4.417969-3.582031 8-8 8h-24v-12c0-4.417969-3.582031-8-8-8s-8 3.582031-8 8v4h-64c-4.417969 0-8-3.582031-8-8zm0 64h8v57.679688c-8.96875 4.621093-17.082031 10.738281-24 18.082031v-59.761719c0-8.835938 7.164062-16 16-16zm-184 152c0 4.417969-3.582031 8-8 8s-8-3.582031-8-8 3.582031-8 8-8 8 3.582031 8 8zm32 0c0 22.089844-17.910156 40-40 40s-40-17.910156-40-40c.042969-2.691406.363281-5.375.960938-8h16.480468c-3.617187 9.960938-.269531 21.117188 8.234375 27.445312 8.5 6.324219 20.148438 6.324219 28.648438 0 8.503906-6.328124 11.851562-17.484374 8.234375-27.445312h16.480468c.597657 2.625.917969 5.308594.960938 8zm72-48h46.078125v.71875c-1.242187 3.296875-2.285156 6.660156-3.117187 10.082031l-.480469 1.597657c-.914063 3.828124-1.605469 7.699218-2.082031 11.601562h-40.398438zm128 88c-22.089844 0-40-17.910156-40-40 .027344-2.5.296875-4.992188.800781-7.441406-.035156-.183594-.035156-.375 0-.558594h16.480469c-3.617188 9.960938-.269531 21.117188 8.234375 27.445312 8.5 6.324219 20.148437 6.324219 28.652344 0 8.5-6.328124 11.847656-17.484374 8.230469-27.445312h16.480468c.035156.183594.035156.375 0 .558594.613282 2.441406.988282 4.929687 1.121094 7.441406 0 22.089844-17.910156 40-40 40zm8-40c0 4.417969-3.582031 8-8 8s-8-3.582031-8-8 3.582031-8 8-8 8 3.582031 8 8zm63.519531-24h-142.960937v-2.238281c.367187-2.691407.875-5.363281 1.519531-8 0 0 0-.722657 0-1.121094 1.605469-5.78125 3.917969-11.34375 6.882813-16.558594 15.308593-27.507812 46.714843-41.878906 77.539062-35.480469 30.820312 6.394532 53.917969 32.070313 57.019531 63.398438zm-79.519531-79.601562c-5.421875.480468-10.78125 1.5-16 3.042968v-91.441406h16zm0 0" data-original="#000000" class="active-path" data-old_color="#a0a0a0" fill="#a0a0a0"/></g> </svg>
