<?xml version="1.0"?>
<svg xmlns="http://www.w3.org/2000/svg" height="512px" viewBox="-84 0 480 480" width="512px"><g><path d="m267.820312 184v-43.71875l27.046876-18.035156c10.679687-7.113282 17-19.179688 16.765624-32.011719-.230468-12.832031-6.984374-24.664063-17.917968-31.386719l-70.289063-43.246094c-16.566406-10.207031-35.644531-15.60546825-55.101562-15.601562h-25.007813c-19.460937-.00390625-38.535156 5.394531-55.105468 15.601562l-70.296876 43.246094c-10.925781 6.726563-17.675781 18.558594-17.9062495 31.386719-.2343745 12.832031 6.0859375 24.894531 16.7617185 32.011719l27.050781 18.035156v43.71875c.074219 46.371094 28.695313 87.902344 72 104.488281v15.511719h-40.296874c-35.167969.039062-63.664063 28.539062-63.703126 63.703125v104.296875c0 4.417969 3.582032 8 8 8h272c4.417969 0 8-3.582031 8-8v-104.296875c-.042968-35.164063-28.539062-63.664063-63.707031-63.703125h-40.292969v-15.511719c43.300782-16.585937 71.921876-58.117187 72-104.488281zm-224-72v9.046875l-18.175781-12.109375c-6.140625-4.097656-9.769531-11.035156-9.636719-18.410156.136719-7.378906 4.015626-14.179688 10.300782-18.046875l70.308594-43.257813c14.042968-8.640625 30.207031-13.21875 46.699218-13.222656h25.007813c16.488281.003906 32.652343 4.582031 46.695312 13.222656l70.289063 43.257813c6.28125 3.867187 10.164062 10.667969 10.296875 18.046875.132812 7.375-3.496094 14.3125-9.632813 18.410156l-18.152344 12.109375v-9.046875c0-4.417969-3.582031-8-8-8h-208c-4.417968 0-8 3.582031-8 8zm198.527344 8c-3.378906 9.554688-12.394531 15.957031-22.527344 16h-128c-10.136718-.042969-19.152343-6.445312-22.53125-16zm-122.367187 200 23.40625 29.273438-29.03125 14.519531-5.472657-43.792969zm11.839843-10.800781v-15.855469c15.800782 3.542969 32.195313 3.542969 48 0v15.855469l-24 30zm23.671876 90.800781c-11.070313.03125-22.078126 1.609375-32.707032 4.695312l-13.328125-21.09375c.664063-.070312 1.3125-.226562 1.9375-.457031l25.007813-12.503906zm-80-80h17.230468l5.792969 46.335938-29-45.921876c1.992187-.265624 3.996094-.402343 6.007813-.414062zm-47.671876 47.703125c.011719-17.867187 10.003907-34.230469 25.894532-42.398437l53.6875 85c-4.140625 1.851562-8.179688 3.933593-12.085938 6.238281-.699218-7.28125-3.894531-14.101563-9.042968-19.304688l-11.320313-11.308593c-3.121094-3.125-8.1875-3.125-11.308594 0l-33.945312 33.941406c-.886719.941406-1.53125 2.082031-1.878907 3.328125zm21.925782 96.296875h-21.925782v-36.136719c.34375 1.25.988282 2.398438 1.878907 3.34375l11.320312 11.3125c4.492188 4.523438 10.242188 7.589844 16.503907 8.800781-2.851563 4.0625-5.449219 8.296876-7.777344 12.679688zm2.585937-32.800781-5.65625-5.65625 22.625-22.632813 5.660157 5.65625c6.253906 6.25 6.253906 16.382813 0 22.632813-6.332032 6.046875-16.296876 6.046875-22.628907 0zm58.246094 32.800781c6.804687-5.507812 14.566406-9.714844 22.898437-12.398438l7.824219 12.398438zm49.648437 0-9.902343-15.6875c1.824219-.136719 3.636719-.3125 5.496093-.3125 13.382813-.019531 26.503907 3.71875 37.871094 10.785156l3.382813 5.214844zm63.296876 0c-16.644532-20.257812-41.484376-32-67.703126-32s-51.0625 11.742188-67.707031 32h-19.878906c19.082031-29.917969 52.113281-48.027344 87.601563-48.027344 35.484374 0 68.515624 18.109375 87.597656 48.027344zm60.296874 0h-8c-8.839843 0-16-7.164062-16-16s7.160157-16 16-16h8zm-76.226562-80.945312c2.289062-1.226563 3.839844-3.484376 4.160156-6.0625l7.128906-56.992188h17.230469c26.335938.03125 47.675781 21.371094 47.707031 47.703125v48.296875h-8c-14.476562.058594-27.109374 9.824219-30.808593 23.816406-18.1875-20.09375-42.597657-33.503906-69.3125-38.074218l-24.894531-38.285157 5.015624-2.511719 44.421876 22.253907c2.324218 1.160156 5.0625 1.121093 7.351562-.101563zm-4.839844-63.054688-5.472656 43.792969-29.03125-14.519531 23.410156-29.273438zm-46.933594-40c-52.996093-.058594-95.945312-43.003906-96-96v-48.246094c7.484376 10.183594 19.359376 16.210938 32 16.246094h128c12.636719-.035156 24.511719-6.0625 32-16.246094v48.246094c-.058593 52.996094-43.003906 95.941406-96 96zm0 0" data-original="#000000" class="active-path" data-old_color="#a0a0a0" fill="#a0a0a0"/></g> </svg>
