<?xml version="1.0"?>
<svg xmlns="http://www.w3.org/2000/svg" height="512px" viewBox="0 0 480 480" width="512px" class=""><g><path d="m128 304c0 22.089844-17.910156 40-40 40s-40-17.910156-40-40 17.910156-40 40-40 40 17.910156 40 40zm0 0" fill="#78b9eb" data-original="#78B9EB"/><path d="m392 8c-44.183594 0-80 35.816406-80 80 0 44.160156 80 152 80 152s80-107.839844 80-152c0-44.183594-35.816406-80-80-80zm0 40c22.089844 0 40 17.910156 40 40s-17.910156 40-40 40-40-17.910156-40-40 17.910156-40 40-40zm0 0" fill="#78b9eb" data-original="#78B9EB"/><g fill="#1a6fb0"><path d="m88 216c-48.589844.03125-87.96875 39.410156-88 88 0 46.320312 78.238281 152.320312 81.601562 156.800781 1.507813 2.011719 3.878907 3.199219 6.398438 3.199219s4.890625-1.1875 6.398438-3.199219c3.363281-4.480469 81.601562-110.480469 81.601562-156.800781-.03125-48.589844-39.410156-87.96875-88-88zm0 16c39.738281.0625 71.9375 32.261719 72 72 0 31.121094-47.199219 103.601562-72 138.398438-24.800781-34.796876-72-107.277344-72-138.398438.0625-39.738281 32.261719-71.9375 72-72zm0 0" data-original="#000000" class="active-path" style="fill:#3C4858" data-old_color="#78B9EB"/><path d="m88 256c-26.507812 0-48 21.492188-48 48s21.492188 48 48 48 48-21.492188 48-48-21.492188-48-48-48zm0 80c-17.671875 0-32-14.328125-32-32s14.328125-32 32-32 32 14.328125 32 32-14.328125 32-32 32zm0 0" data-original="#000000" class="active-path" style="fill:#3C4858" data-old_color="#78B9EB"/><path d="m392 0c-48.589844.03125-87.96875 39.410156-88 88 0 46.320312 78.238281 152.320312 81.601562 156.800781 1.507813 2.011719 3.878907 3.199219 6.398438 3.199219s4.890625-1.1875 6.398438-3.199219c3.363281-4.480469 81.601562-110.480469 81.601562-156.800781-.03125-48.589844-39.410156-87.96875-88-88zm0 16c39.738281.0625 71.9375 32.261719 72 72 0 31.121094-47.199219 103.601562-72 138.398438-24.800781-34.796876-72-107.277344-72-138.398438.0625-39.738281 32.261719-71.9375 72-72zm0 0" data-original="#000000" class="active-path" style="fill:#3C4858" data-old_color="#78B9EB"/><path d="m392 40c-26.507812 0-48 21.492188-48 48s21.492188 48 48 48 48-21.492188 48-48-21.492188-48-48-48zm0 80c-17.671875 0-32-14.328125-32-32s14.328125-32 32-32 32 14.328125 32 32-14.328125 32-32 32zm0 0" data-original="#000000" class="active-path" style="fill:#3C4858" data-old_color="#78B9EB"/><path d="m290.351562 262.398438c-16.710937 13.652343-26.386718 34.097656-26.351562 55.671874v57.929688c-.058594 48.578125-39.421875 87.941406-88 88h-72v16h72c57.410156-.066406 103.933594-46.589844 104-104v-57.929688c.011719-16.769531 7.539062-32.652343 20.511719-43.277343 12.972656-10.628907 30.027343-14.882813 46.472656-11.59375l43.414063 8.640625 3.136718-15.679688-43.4375-8.6875c-21.148437-4.25-43.082031 1.230469-59.746094 14.925782zm0 0" data-original="#000000" class="active-path" style="fill:#3C4858" data-old_color="#78B9EB"/></g></g> </svg>
