<?xml version="1.0"?>
<svg xmlns="http://www.w3.org/2000/svg" xmlns:xlink="http://www.w3.org/1999/xlink" version="1.1" id="Layer_1" x="0px" y="0px" viewBox="0 0 299.145 299.145" style="enable-background:new 0 0 299.145 299.145;" xml:space="preserve" width="512px" height="512px" class=""><g><g id="XMLID_1377_">
	<g>
		<g>
			<path d="M173.931,259.952c-1.828-4.341-13.193-31.321-14.955-35.504c7.891-7.01,10.431-18.736,5.336-28.66     c-0.061-0.12-0.133-0.232-0.196-0.35c-4.447-8.317-13.278-13.151-22.626-12.5l-14.958-35.511     c-1.649-3.913-6.162-5.738-10.059-4.096c-3.908,1.646-5.743,6.15-4.096,10.059l14.955,35.504     c-3.184,2.828-5.568,6.473-6.895,10.715c-11.784-12.148-30.223-16.476-46.725-9.525l-30.148,12.699l-12.998,5.475     c-4.802,2.023-7.191,7.626-5.114,12.557l2.576,6.116l21.716-9.147c13.081-5.511,28.424,0.452,34.079,13.878     c5.569,13.222-0.656,28.51-13.879,34.079l-21.716,9.147l2.576,6.116c2.034,4.83,7.643,7.184,12.557,5.114l43.147-18.174     c16.242-6.843,26.294-22.917,25.828-40.087c3.732,1.905,7.979,2.859,12.48,2.546l14.958,35.512     c1.646,3.909,6.151,5.743,10.059,4.096c3.799-1.6,5.628-5.897,4.218-9.725C174.011,260.175,173.977,260.063,173.931,259.952z      M147.497,216.979c-5.714,2.406-12.254-0.276-14.651-5.966c-2.4-5.696,0.268-12.251,5.966-14.651     c5.713-2.406,12.254,0.276,14.651,5.966C155.862,208.024,153.195,214.578,147.497,216.979z" data-original="#000000" class="active-path" data-old_color="#0d1d44" fill="#0d1d44"/>
			<path d="M72.205,236.555c-2.876-6.827-10.741-10.029-17.567-7.154L8.21,248.957c-6.827,2.876-10.029,10.741-7.155,17.568     c2.876,6.828,10.742,10.029,17.567,7.154l46.429-19.557C71.877,251.247,75.08,243.382,72.205,236.555z" data-original="#000000" class="active-path" data-old_color="#0d1d44" fill="#0d1d44"/>
			<path d="M293.177,54.499h-30.365c-3.296,0-5.968,2.672-5.968,5.968c0,3.296,2.672,5.968,5.968,5.968h30.365     c3.296,0,5.968-2.672,5.968-5.968C299.146,57.17,296.474,54.499,293.177,54.499z" data-original="#000000" class="active-path" data-old_color="#0d1d44" fill="#0d1d44"/>
			<path d="M267.033,43.932l21.471-21.471c2.331-2.331,2.331-6.109,0-8.44c-2.331-2.331-6.109-2.331-8.44,0l-21.471,21.471     c-2.331,2.331-2.331,6.109,0,8.44C260.924,46.263,264.702,46.263,267.033,43.932z" data-original="#000000" class="active-path" data-old_color="#0d1d44" fill="#0d1d44"/>
			<circle cx="224.871" cy="51.114" r="20.924" data-original="#000000" class="active-path" data-old_color="#0d1d44" fill="#0d1d44"/>
			<path d="M251.887,81.164h-46.663l-22.108-2.585l11.901-14.298c3.567-4.285,2.985-10.652-1.301-14.219     c-4.285-3.567-10.651-2.984-14.219,1.301l-23.823,28.621c-2.37,2.848-2.99,6.765-1.615,10.204     c1.375,3.44,4.523,5.852,8.203,6.282l35.623,4.165c0,100.205-0.001,56.582,0.005,174.12c0,6.691,5.424,12.115,12.115,12.115     s12.115-5.424,12.115-12.115v-96.839h5.231v96.838c0,6.691,5.424,12.115,12.115,12.115s12.115-5.424,12.115-12.115     l-0.215-169.707c-0.001-1.164,0.94-2.11,2.104-2.113s2.112,0.937,2.116,2.101l0.372,74.172     c0.028,5.559,4.542,10.045,10.095,10.045c0.017,0,0.034,0,0.051,0c5.576-0.028,10.073-4.571,10.045-10.146l-0.372-74.172     C275.713,91.828,264.995,81.164,251.887,81.164z" data-original="#000000" class="active-path" data-old_color="#0d1d44" fill="#0d1d44"/>
		</g>
	</g>
</g></g> </svg>
