<?xml version="1.0"?>
<svg xmlns="http://www.w3.org/2000/svg" xmlns:xlink="http://www.w3.org/1999/xlink" version="1.1" id="Capa_1" x="0px" y="0px" viewBox="0 0 512 512" style="enable-background:new 0 0 512 512;" xml:space="preserve" width="512px" height="512px"><g><g>
	<g>
		<path d="M386,312H166c-5.522,0-10,4.478-10,10v84h-30c-5.522,0-10,4.478-10,10v8.474c-26.715-22.764-47.495-51.656-60.506-84.039    c4.411,1.784,9.596,0.214,12.21-3.959c2.932-4.681,1.515-10.852-3.166-13.783c0,0-21.677-13.579-21.705-13.597    c-5.354-3.354-12.652-0.785-14.741,5.155c0,0-8.481,24.104-8.501,24.16c-3.639,10.341,10.548,18.206,17.336,9.448    c16.258,40.479,43.61,75.973,79.073,102.145V502c0,5.522,4.478,10,10,10h260c5.522,0,10-4.478,10-10V322    C396,316.478,391.522,312,386,312z M156,492h-20v-26h20V492z M156,446h-20v-20h20V446z M286,372h50v80h-50V372z M266,492h-90v-26    h90V492z M266,446h-90v-20h90V446z M266,406h-50v-34h50V406z M266,352h-60c-5.522,0-10,4.478-10,10v44h-20v-74h90V352z M376,492    h-90v-20h60c5.522,0,10-4.478,10-10V362c0-5.522-4.478-10-10-10h-60v-20h90V492z" data-original="#000000" class="active-path" data-old_color="#0d1d44" fill="#0d1d44"/>
	</g>
</g><g>
	<g>
		<path d="M502,0H377c-0.065,0-0.127,0.008-0.192,0.01C376.744,0.008,336.616,0,336.616,0c-5.522,0-10,4.478-10,10v192    c0,5.522,4.478,10,10,10H367v20c0,5.522,4.478,10,10,10c5.522,0,10-4.478,10-10v-20h80.5c2.978,14.405,4.5,29.167,4.5,44    c0,37.244-9.351,73.083-27.217,105.047c-1.562-4.323-5.96-7.139-10.703-6.506c-5.476,0.721-9.33,5.744-8.608,11.22    c0,0,3.339,25.348,3.345,25.393c0.821,6.234,7.474,10.246,13.364,8.08c0,0,23.992-8.819,24.04-8.837    c10.479-3.852,7.14-20.101-4.1-19.362C481.736,336.042,492,296.788,492,256c0-14.806-1.394-29.553-4.116-44H502    c5.522,0,10-4.478,10-10V10C512,4.478,507.522,0,502,0z M366.616,192h-20V20h20V192z M492,192H387V20h105V192z" data-original="#000000" class="active-path" data-old_color="#0d1d44" fill="#0d1d44"/>
	</g>
</g><g>
	<g>
		<path d="M461,50.697h-42.104c-5.522,0-10,4.478-10,10c0,5.522,4.477,10,10,10H461c5.522,0,10-4.478,10-10    C471,55.175,466.522,50.697,461,50.697z" data-original="#000000" class="active-path" data-old_color="#0d1d44" fill="#0d1d44"/>
	</g>
</g><g>
	<g>
		<path d="M446.569,90.396h-12.674c-5.522,0-10,4.478-10,10c0,5.522,4.478,10,10,10h12.674c5.522,0,10-4.478,10-10    C456.569,94.874,452.092,90.396,446.569,90.396z" data-original="#000000" class="active-path" data-old_color="#0d1d44" fill="#0d1d44"/>
	</g>
</g><g>
	<g>
		<path d="M303.611,27.905L285.818,9.482c-3.836-3.973-10.167-4.082-14.14-0.246c-3.079,2.973-3.827,7.441-2.226,11.152    C264.974,20.133,260.486,20,256,20c-60.443,0-117.651,22.704-161.574,64H10C4.478,84,0,88.478,0,94v180c0,5.522,4.478,10,10,10    h220c5.522,0,10-4.478,10-10V94c0-5.522-4.478-10-10-10H125.331C162.745,55.478,208.267,40,256,40    c4.105,0,8.212,0.123,12.31,0.354c-3.886,3.092-4.962,8.659-2.314,13.011c2.774,4.559,9.195,6.109,13.741,3.344    c0,0,21.856-13.3,21.88-13.315C307.009,40.113,307.992,32.44,303.611,27.905z M130,144h50v80h-50V144z M130,244h60    c5.522,0,10-4.478,10-10V134c0-5.522-4.478-10-10-10h-60v-20h90v160h-90V244z M110,224H60v-80h50V224z M110,124H50    c-5.522,0-10,4.478-10,10v100c0,5.522,4.478,10,10,10h60v20H20V104h90V124z" data-original="#000000" class="active-path" data-old_color="#0d1d44" fill="#0d1d44"/>
	</g>
</g></g> </svg>
