<?xml version="1.0"?>
<svg xmlns="http://www.w3.org/2000/svg" height="512px" viewBox="0 0 512 512" width="512px"><g><path d="m436.332031 75.441406c-49.53125-49.523437-114.96875-75.441406-180.40625-75.441406-65.433593 0-130.875 25.917969-180.40625 75.441406-100.691406 100.695313-100.691406 260.121094 0 360.8125 49.832031 49.828125 114.972657 75.746094 180.40625 75.746094 65.4375 0 130.578125-25.917969 180.40625-75.746094 100.695313-100.691406 100.695313-260.117187 0-360.8125zm-180.40625 375.824219c-50.125 0-99.960937-19.511719-138.078125-57.335937-67.539062-67.835938-76.246094-173.199219-21.015625-251.246094l159.09375 159.09375 113.167969 113.164062c-34.21875 24.316406-73.839844 36.324219-113.167969 36.324219zm159.09375-82.25-159.09375-159.09375-113.167969-113.164063c34.222657-24.316406 73.84375-36.324218 113.167969-36.324218 50.128907 0 99.960938 19.511718 138.082031 57.335937 67.539063 67.839844 76.246094 173.199219 21.011719 251.246094zm0 0" fill="#ff6c6c" data-original="#FF6C6C"/><path d="m394.007812 117.769531c67.539063 67.835938 76.246094 173.199219 21.011719 251.246094l-159.09375-159.09375v91.855469l113.167969 113.164062c-34.21875 24.316406-73.839844 36.324219-113.167969 36.324219v60.734375c65.4375 0 130.578125-25.917969 180.40625-75.746094 100.695313-100.691406 100.695313-260.117187 0-360.8125-49.53125-49.523437-114.96875-75.441406-180.40625-75.441406v60.433594c50.128907 0 99.960938 19.511718 138.082031 57.335937zm0 0" fill="#ff4949" data-original="#FF4949" class="active-path" style="fill:#FF4949"/></g> </svg>
